<svg xmlns="http://www.w3.org/2000/svg" width="710" height="711" fill="none"><g stroke="#231F20" stroke-miterlimit="10" clip-path="url(#a)"><path d="M710.001 392.023c-5.14-5.76-16-29.71-33.07-39.68-5.54-1.33-19.95 0-19.95 0s-10.42-7.76-10.86-8.65c-.44-.89 2-1.33 2-1.33s-4.43-6.43-6.43-13.3c-2-6.87-2.44-12.19-7.09-11.97-4.65.22-3.33-2-2.66-3.99.67-1.99 28.6-12.19 35.03-37.24 6.43-25.05 5.11-35.91 3.66-44.12-1.45-8.21-2.33-19.29-2.33-19.29s11.97 2 19.07-4.66 18.26-7.32 22.65-13.75m-4.922-44.34s.87 9.53-4.9 17.96m.012 5.759c2.22-2 7.09-5.54 7.54-9.09m-34.81-70.941c5.76-1.33 16.63-.22 24.39 8.42"/><path d="M710.001 96.055s-6.25-9.98-15.11-12.64-20.67 2.14-26.6 5.76c-3.99 2.44-9.53-.67-13.75 1.77-4.22 2.44-21.73 8.87-26.16 19.51-4.43 10.64-3.15 14.61 1.33 22.17 1.98 3.33 2.44 7.98 2.44 7.98s-9.75-12.64-14.63-13.75c-4.88-1.11-11.53-.89-21.73 12.41-11.08-1.11-18.62-5.32-44.12 1.33-25.5 6.65-39.9 12.64-47.89 21.06"/><path d="M560.279 138.633c-10.24-1.98-28.78 3.98-41.86 5.53-13.08 1.55-17.07 8.65-23.06 17.51-5.99 8.86-8.65 17.51-5.54 27.05-5.54 8.2-13.75 15.08-17.07 48.33-1.11 8.2 2.39 9.82 2.77 14.88.16 2.18 1.78 4.57-3 12.61-3.82 6.43-11.14 19.65-12.72 22.64-1.58 2.99-2.83 6.82.17 10.06s7.4 2.99 10.81 3.16c.91 2.83 1.75 4.07 1.5 6.82s-2.99 4.57-2.74 7.4 1.5 4.74 8.15 7.07c-2.66 2.41-3.24 4.24-3.24 6.4s.67 5.07 5.9 6.48c5.23 1.41 4.24 7.15 4.32 10.14.08 2.99.75 16.54 17.62 16.54s26.1-7.65 32.01-7.65c2.16 0 4.83-.16 10.23 5.99 9.79 11.16 23.78 28.85 23.78 28.85s-22.2 31.51-22.7 35.67 1.16 6.07 4.07 9.14c-1.08 1.66-3.08 4.57-3.08 7.4s14.22 22.28 17.54 24.44c-.67 5.99-4.38 15.71-3.05 37.22.11 3.33-6.54 12.75-6.43 34.47-2.66 2.99-12.08 10.64-14.3 29.26-6.32 4.54-10.97 8.31-11.86 9.98-3.66-.44-7.76 2.11-8.87 3.44 0 0-1.66-2.55-4.32-.67s-15.08 12.53-22.95 14.96c-7.87 2.43-17.62 2.77-19.73 13.3-12.75 2.66-56.42 9.75-77.48 11.97-21.06 2.22-52.32 6.43-60.74 8.42-8.42 1.99-54.09-5.32-64.73-7.54-10.64-2.22-9.53-3.1-22.17-3.55-12.64-.45-27.93-1.77-30.37-1.33-2.44.44-11.31 8.87-15.3 13.3-3.99 4.43-19.95 17.51-19.95 19.51s-.89 4.21 6.65 4.88l-1.55 4.21-52.76-1.11s-100.33-258.47-101.32-261.8c-.99-3.33-4.32-12.97-6.32-9.98s-16.29 29.93-17.29 31.59c-1 1.66.67 7.65 2.66 13.63 1.99 5.98 110.4 281.69 110.4 281.69m467.222-266.599c-6.21 12.86-11.97 53.21-12.41 72.27-3.55 9.75-8.87 32.81-6.65 48.33-.52 7.54-3.99 17.29-3.99 17.29"/><path d="M581.159 573.363c-10.2 7.54-28.38 16.85-38.13 28.82-9.75 11.97-16.85 11.08-21.28 15.08s-27.93 21.28-37.69 20.84c-9.75-3.1-12.86-3.53-25.72 0s-22.61 5.76-25.27 12.41c-8.42 0-46.67 1.11-52.32 0-5.65-1.11-6.32 2.22-6.32 2.22s-9.31 0-15.63-2-55.42-18.4-59.19-19.51c-3.77-1.11-8.2 2.44-13.3 4.43-5.1 1.99-23.72 7.54-28.82 9.09-5.1 1.55-10.64 2.88-18.4 10.2-7.76 7.32-17.51 14.85-20.4 15.96-2.89 1.11-4.88 2.66-4.88 5.32s5.54 4.88 12.19 5.1c-1.11 2.66 4.66 9.75 18.62 5.1s10.64-4.88 18.62-5.1c7.98-.22 18.4-2.22 18.4-2.22s1.11.89 12.64 2.66c11.53 1.77 42.57 9.98 54.32 8.65s16.63-4.88 16.63-4.88 17.07 1.33 22.39 1.77c5.32.44 16.85 6.43 20.17 8.2 0 0-11.53 1.1-15.08 3.21-3.55 2.11-10.7 1.83-10.7 1.83"/><path d="M374.429 652.734c-5.21 5.1-7.87 7.76-8.98 17.96m11.981 15.81 7.97 24.45m-251.181-55.122v55.12m34.031.003-2.66-49.24m25.941 49.24-2.99-49.24h-34.26l1.67 49.24m54.197-46.252 5.99 46.25m22.614 0-2.99-22.98"/><path d="M186.98 656.942c-.44 1.94.39 5.6 4.54 5.76 4.15.16 10.64-6.87 10.64-6.87s-1.83 12.03 10.97 8.2 19.95-3.73 19.95-3.73m29.611 50.652-4-29.36m27.449 29.359-5.98-31.57M89.89 628.344H0m201.841 0h-78.29"/></g><defs><clipPath id="a"><path fill="#fff" d="M0 .953h710v710H0z"/></clipPath></defs></svg>