<svg xmlns="http://www.w3.org/2000/svg" width="80" height="80" fill="none"><path fill="#fff" stroke="#000" d="M.5.5h79v79H.5z"/><path fill="#fff" stroke="#000" d="M23.032 36.69c-.248 0-.491.04-.725.116.854-.945 2.158-1.688 3.635-1.688 1.529 0 2.666.54 3.426 1.378.766.845 1.184 2.034 1.184 3.386v8.205c0 .444.008.828.049 1.147.04.315.116.62.29.873.117.169.26.292.422.383H25.1a1.23 1.23 0 0 0 .43-.388c.175-.253.252-.558.292-.873a9.57 9.57 0 0 0 .049-1.148v-7.515c0-1.27-.252-2.24-.76-2.904-.525-.685-1.269-.971-2.078-.971Zm-2.446 1.05.39.085c-.13.184-.245.39-.345.616l-.042.096v9.545c0 .446.011.831.055 1.151.043.318.125.622.302.873.117.167.26.289.42.378H15.14c.163-.09.306-.213.422-.382.174-.253.251-.558.291-.873a9.57 9.57 0 0 0 .049-1.148V37.88c0-.445-.009-.83-.049-1.149-.04-.316-.117-.622-.29-.875a1.228 1.228 0 0 0-.406-.376h5.43v2.26Zm16.429.14v-.001c0-.445-.01-.83-.05-1.148-.041-.316-.119-.62-.293-.873a1.228 1.228 0 0 0-.413-.378h5.438v12.607c0 .446.01.831.054 1.151.043.318.125.622.301.873.117.167.26.289.422.379h-6.23a1.22 1.22 0 0 0 .43-.388c.175-.253.252-.558.292-.873.04-.319.05-.703.05-1.147V37.88Zm10.941 15.61c0 1.322-.303 2.352-.901 3.059-.607.718-1.46 1.033-2.4 1.034l-.11.001c.488.1 1.06.161 1.72.161 1.807 0 3.396-.477 4.525-1.456 1.118-.969 1.847-2.481 1.847-4.686V35.48h-5.453c.154.09.291.21.405.372.176.252.257.556.3.874.044.32.055.706.055 1.154l.012 15.61Zm0 0-.012-15.61.012 15.61Zm10.581-17.633a1.23 1.23 0 0 0-.413-.377h5.435v12.607c0 .446.011.831.055 1.151.044.318.125.622.302.873.118.167.26.289.422.379h-6.23c.167-.091.313-.216.431-.388.175-.253.252-.558.292-.873.04-.319.049-.703.049-1.147V37.88c0-.445-.01-.83-.05-1.149-.04-.316-.118-.62-.293-.874Zm-16.629-8.776c0 1.43-1.147 2.582-2.553 2.582-1.407 0-2.554-1.151-2.554-2.582 0-1.43 1.147-2.581 2.553-2.581 1.407 0 2.554 1.151 2.554 2.581Zm10.932 0c0 1.43-1.147 2.582-2.553 2.582-1.407 0-2.554-1.151-2.554-2.582 0-1.43 1.148-2.581 2.554-2.581s2.553 1.151 2.553 2.581Zm10.933 0c0 1.43-1.148 2.582-2.554 2.582s-2.554-1.151-2.554-2.582c0-1.43 1.148-2.581 2.554-2.581s2.554 1.151 2.554 2.581Z"/></svg>