<svg xmlns="http://www.w3.org/2000/svg" width="710" height="711" fill="none"><g stroke-miterlimit="10" clip-path="url(#a)"><path stroke="#231F20" d="m0 577.455 299.6-9.31m-17.951.549 2.99-331.1s-2.65 1-2.99-1.33c-.34-2.33-2.67-8.15-1.34-9.98 1.33-1.83 6.32-13.63 6.98-13.97.66-.34 5.99-.67 7.98 0 1.99.67 6.32.83 6.15 2.49-.17 1.66-.5 6.48-.67 7.15-.17.67-6.48 16.13-6.48 16.13"/><path stroke="#231F20" d="M290.129 233.435c2.16 0 4.16-1.33 4.32 8.15.16 9.48 10.14 321.73 10.14 321.73M278.82 231.613c-2.99.33-10.14 3.66-16.63 4.99-6.49 1.33-26.44-3.22-26.44-3.22m51.72-49.328c-.5 8.48-3.82 24.61-2.99 31.26m13.692 13.22c10.41 5.23 25.88 20.53 33.86 24.69m68.667 248.08c3.99 15.3 12.97 26.6 28.93 37.91 15.96 11.31 23.61 22.28 26.94 40.57m8.642-92.121c1.33 23.94 9.98 60.52 8.98 103.09m-194.279-369.34c-.26-10.2-7.35-7.98-8.24-21.73-.89-13.75 5.87-82.03 18.46-132.13 12.59-50.1 18.34-67.39 18.34-67.39m-13.191 212.16c2.99-16.18 20.29-56.98 41.12-89.34 20.85-32.37 31.38-122.82 31.38-122.82M300.77 221.965c9.48 4.77 86.18 46 103.92 61.52 17.74 15.52 25.14 23.37 25.14 23.37"/><path stroke="#231F20" d="M294.281 238.094c7.54 9.92 49.75 72.77 72.03 86.96 22.28 14.19 24.53 14.67 24.53 14.67M280.319 226.286c-11.31-9.31-24.16-7.92-59.19-21.67-35.03-13.75-105.3-32.53-157.18-32.53m217.701 64.179c-14.42 8.65-22.25 21.69-69.4 13.69-73.2-12.43-128.41-10.81-166.27-22.67"/><path stroke="#000" d="M343.078 376.086s12.52 8.29 23.74 6.83c11.22-1.46 11.95 11.65 6.12 11.65-5.83 0-15.99 2.91-25.11 0m-19.968 28.41s8.01 7.28 19.67 0c11.65-7.28 15.93-16.53 33.46-14.34 17.53 2.19 23.71 8.93 23.71 8.6 0-.33 9.12 42.89 6.21 49.44-2.91 6.55-18.21 7.28-18.21 7.28s-10.93 6.64-8.01 13.52l2.91 6.88s-15.3 18.94-29.14 21.12c-13.84 2.19-46.22 19.81-53.04 47.84-6.27 25.76-63.89 116.4-32.41 146.84"/><path stroke="#000" d="M571.4 710.165s-1.77-55.71-2.06-78.26c-.08-6.24-2.08-33.77-3.84-48.97-1.76-15.2-10.24-38.07-13.12-46.87-2.88-8.8-2.56-4.64-5.76-10.88-3.2-6.24-6.47-10.34-13.76-13.13-4.99-1.91-29.25-9.14-29.25-9.14-3.52-6.24-27.89-26.73-29.97-28.65-2.08-1.92-9.02-3.68-9.02-3.68 2.4-14.24 14.78-13.6 14.78-13.6 21.29 4.16 23.37.32 28.49-1.6 5.12-1.92 2.4-11.68 2.24-13.6-.16-1.92 3.04-9.44 3.84-9.76.8-.32-.32-4.16-.64-4.64-.32-.48.16-5.6.32-7.52s2.4-4.96 3.52-5.12c1.12-.16 1.12-2.72.8-3.2-.32-.48-.8-2.4-.8-4.16 0-1.76 2.4-5.44 5.92-5.28 3.52.16 4.48-2.24 5.12-3.52.64-1.28.8-2.72-4.96-12.8s-2.4-9.92-2.4-12.32c0-2.4 6.38-11.51 3.9-12.75-2.48-1.24-4.35-9.33-4.98-14.93-.63-5.6-7.46-18.66-7.46-18.66s1.77-10.73-23.01-19.28c-21.23-7.33-42.09-4.64-42.09-4.64-38.93 3.07-54.3 35.86-58.39 38.93-4.09 3.07-6.15 14.34-10.24 25.61-4.1 11.27-21.51 0-21.51 0"/><path stroke="#231F20" d="m560.012 559.232 149.99-6.99"/></g><defs><clipPath id="a"><path fill="#fff" d="M0 .164h710v710H0z"/></clipPath></defs></svg>