<svg xmlns="http://www.w3.org/2000/svg" width="710" height="710" fill="none"><g stroke="#231F20" stroke-miterlimit="10" clip-path="url(#a)"><path d="M262.11 374.019c8.81-11.31 16.88-25.52 15.77-56.78-1.11-31.26-23.72-54.09-29.04-59.86-5.32-5.77-27.27-45.23-37.02-78.7-7.09-4.66-8.42-7.32-11.08-5.54-2.66 1.78-6.43 1.55-8.42-.55-1.99-2.1-.67-2.99-3.77-2.99s-.22-.89-3.1 0l-2.88.89s-3.77.32-4.66-1.28c-.89-1.6 3.1-1.6-.89-1.6h-7.98l-4.43-6.87s1.11-3.55-2.88-3.77c-3.99-.22-10.42-.89-8.2-5.32 2.22-4.43 8.2-11.75 9.75-16.41 1.55-4.66-4.66-3.55-3.33-9.31 1.33-5.76 2.22-8.42 3.99-9.53 1.77-1.11 5.32-4.66 5.32-4.66l1.11-6.65s3.33-6.21-2.66-5.54c-5.99.67-8.65 1.11-13.08-4.21s-7.32-6.21-7.32-6.21-5.32-3.33-10.42-2.22c-5.1 1.11-7.09-2.88-7.32-4.21-.23-1.33-2-3.99.44-5.1 2.44-1.11 11.53-4.43 11.53-4.43s3.55 3.55 0 4.21c-3.55.66-6.43 3.55-2.44 3.77 3.99.22 8.87-1.33 8.87-1.33s1.11 4.66 4.43 2.66c3.32-2 1.11-1.77 5.32-2.22 4.21-.45-3.77 2.88 4.21-.44s6.21-3.77 9.09-3.1l2.88.67s3.1.89.89-1.77-3.55-4.21-3.55-4.21l-5.32-3.33s-2-1.33-4.66 0-1.11 1.55-3.77 1.55-3.99-.22-3.99-.22l-3.99-1.92s-.89-.59-2.44 0l-1.55.59s1.55.67-2.44.22c-3.99-.45-2.22 1.11-3.99-.44s-2.44.89-1.77-1.55c.67-2.44-.89.44.67-2.44l1.55-2.88 5.32-3.1c2.88 1.33 4.21 2 4.21 2s-.67 1.55 2.44.89l3.1-.67s1.33-2 3.55-1.33c2.22.67 3.77.67 3.77.67s0 2 2.44.44 1.55 1.33 2.44-1.55c.89-2.88-.89-2.44.89-2.88l1.77-.44s1.55 3.33 2.66 0-.44-3.77 1.11-3.33l1.55.44 2.44-.59c.44-2.29 3.33.81.44-2.29s-.67-2.88-2.88-3.1l-2.22-.22s-.44-.44-3.77 0 .44 1.11-3.33.44l-3.77-.67-1.77-1.11-3.1 1.33c1.77-3.55 2.44-4.66 2.44-4.66s3.99 0 6.43-2.66c2.44-2.66 4.66-4.66 2.88-7.09-1.78-2.43-3.1-2.88-3.1-2.88s-2-1.33-3.99 0l-2 1.33s2.44.89.44 2.22-3.1 1.55-3.1 1.55-.67-.44-2.44-.22l-1.77.22s1.77 2 .89 2.88c-.88.88-2.88 1.33-2.88 1.33s-3.55 2.88-3.99-.44c-.44-3.32-2.88-3.77-.44-3.33 2.44.44 5.1-.22 3.99-4.21-1.11-3.99-4.43-5.76-3.1-6.87 1.33-1.11 4.43 2.66 6.43 1.77 2-.89 1.33.03 3.33-1.98s.44-2.01 2-2.01.22-1.33 2.66 0 3.55-2.22 3.55-2.22h2l-1.11-3.1h4.43l.44 2s-.22 1.33 2 1.33 1.33.22 2.22 0c.89-.22.22 1.33.89-.22s2.22 0 .67-1.55l-1.55-1.55s-2.22-2-3.99-2.44c-1.77-.44-4.43 0-4.43 0s-3.1-1.11-3.99-2.22c-.89-1.11-1.33-.67-1.55-2.44-.22-1.77-.22-3.1-.22-3.1l2.66-5.32"/><path d="M50.86 710.002c-6.65-49.58 2-82.83 52.54-136.7 16.63-50.55 68.5-111.73 126.37-148.31 0 0-3.77-2-2.88-7.09.89-5.09.67-10.64 5.32-20.84s6.21-26.82 6.21-26.82 23.5-.89 27.05-.89M431.961 0l2.44 1.33V5.1s-.67.44 1.33 2.22c2 1.78 1.11 0 2 1.77.89 1.77.22-.89.89 1.77l.67 2.66 2.44 2.22s1.77-1.11 2.44 2.88c.67 3.99.22.44.67 3.99l.44 3.55 5.99 5.32s25.05 26.82 32.59 40.57c7.54 13.75 16.63 32.59 16.63 32.59s8.87 6.21 10.64 9.31c6.65 0 13.08.89 20.17 6.21 7.09 5.32 6.87 7.54 6.87 9.98 0 2.44-3.55 3.99-3.55 3.99s4.43 23.5-6.87 37.02"/><path d="m486.049 330.32 2.66.22 2 1.11s3.33-1.77 4.21-1.77c.88 0 2.88.44 2.88.44l2.44 2.22 4.88 1.33v-2.66h6.87c.89 0 2.88-1.11 2.88-1.11l.67-2.66 2-1.11c2-1.11 0 0 2.96-.89l1.25-2 1.77.22c1.77.22 1.77-.89 1.77-.89l.44-1.11c.44-1.11-.89-2-.89-2h-2.88l1.55-3.1 1.11-.89c1.11-.89 0 0 1.33-2s-.89-1.55-.89-1.55l-.22-1.11c-.22-1.11 0 0 .89-.89s0 0 .22-1.77 0 0-.67-1.33 0 0-1.33-1.33 0 0-.67-1.11-.67-1.77 1.33-2.44c2-.67 1.11-1.33.89-2.66-.22-1.33-2-1.77-2-3.99s-3.02 0-3.02 0 .14-1.11 0-2.22-3.63-.67-8.29-2.66c-4.66-1.99-1.77-15.52-1.11-19.29 1.01-5.73 8.97-1.84 11.08-15.08.63-3.94-9.53-8.65-9.53-8.65s.44-5.76.44-8.42c11.53-2 11.97-10.64 11.75-14.19-.22-3.55-9.53-9.98-10.42-11.08-.89-1.1-.22-7.32.44-9.09.66-1.77 13.97-6.21 15.74-7.32 1.77-1.11 11.53-12.86-1.11-23.72-12.64-10.86-23.5-24.83-24.39-30.37 0 0 .63 31.08-11.76 32.24-10.64 1-14.51-4.5-15.51-13.4-.5-4.49-5.82-42.9-5.82-42.9s-70.5 9.81-85.46 11.81c-14.96 2-53.87 8.81-68.17 27.77"/><path d="M485.929 329.68c-2.17.4-4.49.77-6.97 1.09-20.62 2.66-41.9 6.65-42.34 22.39-.44 15.74-.22 24.16-6.21 30.15-5.99 5.99-20.62 33.7-20.84 41.24-.22 7.54-5.54 34.14-8.87 41.24"/><path d="M409.221 428.52c4.12 11.77 12.32 30.61 12.32 30.61s38.35 25.94 53.21 43.67 17.51 41.01 23.06 68.73c2.38 11.91 6.39 38.74 11.75 64.29 7.11 33.93 15.58 67.06 15.96 74.18"/><path d="M470.309 710.001c-4.43-29.85-10.85-97.68-11.63-121.63-.78-23.95-3.44-45.23-22.07-69.61 0 0 4.32-2-4.99-21.62 4.32 0 5.43-4.88-10.09-38.02m37.151 210.388s-24.73-91.34-26.94-107.74c-2.21-16.4-16.41-46.56-16.41-46.56-4.43-3.55-2.66-15.96-3.55-23.06-.89-7.1-6.65-3.99-11.08-7.98s-107.74-97.55-126.37-104.64c-18.63-7.09-35.91-9.31-35.91-9.31"/><path d="M433.867 622.012c2.38-.162 4.078-3.71 3.792-7.925-.286-4.215-2.447-7.502-4.827-7.34-2.381.161-4.079 3.709-3.793 7.925.286 4.215 2.447 7.501 4.828 7.34Zm33.313 64.807c.38-.9.94-1.5 1.64-1.63 1.86-.36 4.02 2.65 4.82 6.74.8 4.09-.06 7.69-1.93 8.06-1.02.2-2.12-.61-3.04-2.05m-158.09-538.99c10.64-11.31 16.29-19.29 37.58-24.61s63.18-16.96 78.15-21.28c14.97-4.32 41.24-6.32 41.24-6.32s7.32-17.18 32.92-2.11"/><path d="M483.86 98.54c-3.02 1.05-6.01 1.889-6.01 9.369 0 7.48 4.97 53.43 6.01 56.86 1.27 4.2 2.59 7.71 8.46 8.48 5.87.77 9.87-7.15 12.75-26.44m-181.87 14.41c-3.97-2.66-8.87-3.26-18.33-1.55-20.84 3.77-24.57 13.06-26.89 27.34m234.67 60.622c-10.53-1.22-23.83-1.77-32.48 0m32.93-8.432c-.75-2.61-4.77-4.27-9.92-3.77-5.15.5-24.5 3.77-24.5 3.77"/></g><defs><clipPath id="a"><path fill="#fff" d="M0 0h710v710H0z"/></clipPath></defs></svg>