<svg xmlns="http://www.w3.org/2000/svg" width="710" height="710" fill="none"><g stroke="#231F20" stroke-miterlimit="10" clip-path="url(#a)"><path d="m190.74 537.99 267.15 35.31 235.44-48.55M0 512.781l62.75 8.29m630.58 21.968-205.51 52.21v114.75m-47.22.002v-104.11l-244.5-35.5"/><path d="M211.81 709.998c-1-10.34 0-20.98-4.99-22.31-4.99-1.33-5.65-2.66-2-4.66 3.65-2 4.33-3.49 2.33-5.32s-3.66-2.49-2.16-4.99 4.32-5.99 3.16-9.14c-1.16-3.15-4.82-7.81-3.16-10.81 1.66-3 3.5-9.81 2.16-16.29-1.34-6.48-8.81-54.3-11.06-66.09-3.58-18.71-8.03-50.61-8.23-52.3-.67-5.65-3.33-8.31 1.66-14.63s-1.33-15.3-6.65-43.23c-5.32-27.93-17.29-87.79-21.28-113.73-3.99-25.94-3.99-56.49-3.99-67.17 0 0-.83-6.48 0-6.15.83.33 3.16 1 2.83-1.5-.33-2.5-3.4-8.81-3.2-13.14.2-4.33-.3-20.12-1.46-22.45-1.16-2.33-16.63-24.61-17.46-26.1-.83-1.49 9.14-10.81 12.14-13.3s4.99-5.49 9.81-5.32c4.82.17 7.57-3.37 7.24-7.86 1.5-1.83 2.83-.56 3.35-4.62.2-1.56-.45-2.98.55-3.98s2.66-3.99 2.83-6.82c3.16-.67 8.15.33 9.48-1.66s2.16-4.16-1.33-10.97c-3.49-6.82-4.99-12.97-4.82-15.8.17-2.83 3.33-3.82 3.33-10.64s-.5-30.43-11.31-39.74c-10.81-9.31-15.96-12.14-28.76-15.13-12.8-4.49-30.93-4.32-35.58-1.16-4.65 3.16-7.48 7.48-11.64 9.98s-7.15 10.14-10.64 15.13-4.82 9.48-5.32 18.12-1.5 16.29 2 21.78c3.5 5.49 14.13 25.27 13.97 30.76-.16 5.49 0 11.31-3.99 11.31s-7.15 1.66-8.15 3.16c-1 1.5-3.49 11.31-9.64 18.62-6.15 7.32-25.44 23.11-32.26 32.26-6.82 9.15-9.1 14.75-10.97 20.62-2.95 9.22.28 17.07-.55 29.71-.83 12.64 2.05 21.78 4.88 48.55 2.83 26.77 2.44 48.38 4.43 51.21 3.33 3.33 5.1 22.39 5.1 22.39.22 4.88-4.88 27.05-5.1 45.45-.22 18.4-.89 44.34-1.11 49.88-.22 5.54.44 5.54 5.99 6.87s6.65 4.43 19.73 5.1c-.44 10.2 6.87 19.95 9.98 39.9 3.1 19.95 2.22 32.15 4.66 40.35 2.44 8.2 5.25 12.84 4.58 19.72-.67 6.88-6.14 7.55-1.26 23.29 4.88 15.74 7.98 12.86 4.43 29.26-3.55 16.4-8.65 22.23-10.42 43.59"/><path d="M126.68 710c1.11-3.69 1.33-8.12 3.1-10.56 1.77-2.44 2.44-6.65 1.11-9.53-1.33-2.88-.37-3.33.7-4.88 1.07-1.55 1.29-4.88 2.4-5.1 1.11-.22.67-8.2 2.22-13.52 1.55-5.32 3.89-5.63 5.89-13.38.62-2.42 2.2-4.9 3.42-4.17 1.3.79 1.33 2.89 1.03 7.16-.44 6.21-.79 6.48.5 7.81 1.29 1.33-.76 5.11 2.12 6.21 2.88 1.1 3.67 4.96 3.45 8.86-.22 3.9-2.88 2.13-.89 5.68 1.99 3.55-1.97 5.49-.44 10.34s6.65 3.85 6.21 6.07c-.44 2.22-2 9.01-2 9.01m80.76-284.37c-1.83-4.94-1.5-15.27-1.5-15.27s-2.16.17-2.16-.83.67-17.46 10.14-38.41c.83-2.83-1.5-2.66-1.5-7.98s.33-7.65-1.16-9.14c-1.49-1.49-2.31-4.99-2.32-9.14-.01-4.15-1.17-41.57-1.17-52.21s4.16-25.77 10.97-37.58c6.81-11.81 1-11.64 2.99-17.79 1.99-6.15-.17-13.8 3.33-27.27 3.49-13.47 3.99-28.1 12.3-38.41 8.31-10.31 17.79-16.29 31.09-14.8 13.3 1.5 25.27 6.82 31.59 16.46s0 22.11 2.99 30.09 4.16 11.14 3.66 12.47.17 1.83-5.49 1.16c.33 1.5.5 4.16-.67 4.49-1.17.33-.57.72-.33 1.66.67 2.58-2.33 2.99-2.99 4.16-.66 1.17.33 3.82-.67 6.98-1 3.16-2.49 3.82-8.81 3.49-6.32-.33-11.64-.17-11.64-.17l-5.49 15.13c5.24 4.99 11.97 10.56 13.3 12.14s1.25 2.49-.83 2.16c3.24 6.82 7.65 19.12 12.14 39.9 4.49 20.78 8.26 32.7 15.46 40.68 3.82 4.23 13.83 14.77 20.95 23.5 6.31 7.74 9.61 13.58 15.19 19.62 11.86 12.86 29.04 28.82 34.58 29.6 5.54.78 16.74-.67 20.73 1 3.99 1.67 8.87 4.32 8.87 9.45"/><path d="M389.28 429.31c-21.91-18.76-66.7-52.53-64.29-50.1.78 8.87 1.22 15.63.67 28.04-.55 12.41-2.65 11.71-.76 16.63.77 2.01 1.26 4.55 1.26 4.55m337.741-59.15c1.33-8.15-.5-20.62-2.39-26.44-1.89-5.82-1.43-19.79-2.43-26.27 3.33-1.16 3.16-4.16 0-9.81s-3.49-10.48-4.99-18.29c-1.5-7.81-6.98-16.79-10.48-27.43s-7.32-11.81-18.95-16.46c-11.63-4.65-31.92-8.81-35.08-9.48-3.16-.67-7.98-6.98-9.98-9.64s.33-3.66 2.16-8.98 2-24.44.5-35.08c-1.5-10.64-12.64-16.63-14.8-17.13s-2-.83-3.49-.67c-1.49.16-1.66-1.33-.83-.67s-.33-.83-.83-.67c-.5.16-.83.17-2.66-.33s-.67-.83-2.33-1.5c-1.66-.67-2-.5-3.16 0-1.16.5-3.33-1-4.16-1.33-.83-.33-4.82 0-4.82 0s-3.16.5-6.15.67c-2.99.17-.17 2-.17 3.16 0 1.16-2-.17-3.66-.33-1.66-.16-2.49-.67-2.33 0 .16.67.83 2 .17 2.83-.66.83-2.66 1-4.49 2.99-1.83 1.99-2.66 2.99-4.82 3.66-2.16.67-1 3.66.17 6.65s1 2.66-1.16 4.82-2.83 9.48-2.99 14.8c-.16 5.32 5.82 9.64 6.65 12.64.83 3 .67 11.97 1.5 17.13.83 5.16 8.04 13.08 8.04 13.08s-21.73 7.09-26.38 9.53c-4.65 2.44-6.87 3.77-11.53 12.86-4.66 9.09-6.43 12.41-6.65 20.17-.22 7.76-2.88 15.96-4.43 22.61-1.55 6.65-3.1 10.64-3.33 16.18-.23 5.54-1.55 15.52-6.43 33.7-4.88 18.18-4.21 27.71-4.98 39.24-.77 11.53-1.67 14.63 1.22 17.51 2.89 2.88-.44 4.43-2.44 5.99-2 1.56-.08 2.51 0 5.1l.22 7.48"/><path d="M632.64 402.538c3.49-6.82 5.15-11.14 4.66-14.96-.49-3.82-.66-4.66.09-6.65.75-1.99.09-3.49 0-7.65s-.71-6.98.35-8.48 1.6-6.65 0-8.81-2.32-1-2.04-5.49c.28-4.49-.06-7.48-1.72-10.14s-3.66-3.99-3.99 0c-.33 3.99-2.83 29.76-3.99 37.24-1.16 7.48-3.66 16.46-4.99 19.29-1.33 2.83-2.16 14.8-2.16 14.8v6.32m-124.7 14.154c.17-1.47 4.15-12.16 4.15-12.16.67-4.82 1.83-10.14 1-14.63-.83-4.49 2.99-16.79 2.99-16.79s6.82-38.91 10.97-49.38c.83-2.16 2.66-3.49 2.66.67s1.33 45.06 4.49 59.52 3.49 18.12 6.98 21.12c-5.15 4.32-5.32 6.15-5.32 6.15s1.83.41 1.66 1.78l-.99 4.45"/><path d="m175.891 424.102 279.78 7.08 254.33 6.44"/></g><defs><clipPath id="a"><path fill="#fff" d="M0 0h710v710H0z"/></clipPath></defs></svg>